<?xml version="1.0" encoding="utf-8"?>
<!-- Generator: Adobe Illustrator 26.3.1, SVG Export Plug-In . SVG Version: 6.00 Build 0)  -->
<svg version="1.1" id="Capa_1" xmlns="http://www.w3.org/2000/svg" xmlns:xlink="http://www.w3.org/1999/xlink" x="0px" y="0px"
	 viewBox="0 0 481.2 156.2" style="enable-background:new 0 0 481.2 156.2;" xml:space="preserve">
<style type="text/css">
	.st0{fill:#FFFFFF;}
	.st1{fill-rule:evenodd;clip-rule:evenodd;fill:#FFFFFF;}
</style>
<path class="st0" d="M307.7,82.1c7.6,0,14.6,0.8,21.4,2.3c2.7,0.6,2.9,1.1,3,3.7c0,2.4-0.7,4.8-1.1,7.1c-0.4,1.9-2,2.5-4,2.2
	c-3.4-0.4-6.8-0.6-10.1-1c-4.1-0.5-8.2-0.3-12.3-0.3c-2.7,0-6.1,1.9-6.5,3.8c-0.5,2.3-0.2,4,1.8,5.6c5,4,10.5,7.3,15.9,10.9
	c4.9,3.3,9.4,7.1,10.2,13.3c1.4,11.2-2.9,19.9-14.1,24c-7.6,2.8-15.5,2.8-23.4,2c-3.3-0.3-6.6-0.7-9.9-1.2c-1.5-0.2-3-0.6-4.5-1.1
	c-1.6-0.5-2-2-1.8-3.4c0.3-2.2,0.8-4.4,1.3-6.6c0.4-1.6,1.2-2.5,3.1-2.4c7.3,0.2,14.6,1.4,22,1c2-0.1,3.9-0.1,5.8-0.8
	c4.1-1.5,5.5-6.7,2.3-9.8c-4.1-3.9-9-6.8-13.7-9.9c-3.8-2.6-7.8-5-10.2-9c-4.1-6.6-3.8-13.4-0.1-20c3.8-6.8,10.5-8.8,17.5-9.9
	C303,82.1,305.7,81.8,307.7,82.1L307.7,82.1z"/>
<path class="st0" d="M168,82.9c1.6,0,3.3-0.1,4.9,0c1.4,0.1,2.1-0.6,2.3-1.9c0.4-2.4,0.9-4.8,1.3-7.3c0.4-2.5,1.6-3.7,4.1-4.1
	c3.8-0.5,7.5-1.3,11.3-1.7c2.6-0.3,3.2,0.5,2.7,3c-0.6,3.1-1.2,6.2-1.8,9.3c-0.4,2.1,0,2.5,2.1,2.5c2.7,0,5.4,0,8.1,0
	c2.7,0,3.6,1.1,3.1,3.7c-0.4,1.9-0.7,3.7-1.1,5.6c-0.7,2.9-1.4,3.4-4.4,3.4c-2.8,0-5.7,0.1-8.5,0c-1.3,0-1.9,0.4-2.2,1.7
	c-0.8,4.4-1.6,8.7-2.4,13.1c-1,5.5-2,11.1-3,16.6c-0.7,3.9-1.5,7.9-2,11.8c-0.4,3.3,0.4,3.9,3.6,3.9c2.5,0,4.9,0,7.4,0
	c1.7,0,2.8,1.1,2.3,2.7c-0.7,2.2-0.7,4.6-1.3,6.8c-0.5,2.1-1.8,2.9-3.7,3.1c-5,0.6-10.1,1.3-15.1,0.1c-5.2-1.2-10.3-4.1-10.6-12.2
	c-0.2-4.6,0.8-8.9,1.6-13.4c1-5.8,2.1-11.5,3.1-17.2c0.8-4.4,1.6-8.9,2.4-13.3c0.1-0.8,0.2-1.5,0.2-2.3c0.1-1.1-0.2-2.1-1.4-2.1
	c-2.7-0.1-5.5-0.5-8.2-0.7c-3.7-0.2-4.6-1.5-3.8-5.1c0.9-4.2,3.6-6.3,7.9-6.3C167.3,82.9,167.6,82.9,168,82.9L168,82.9z"/>
<path class="st0" d="M99.2,114.3c2.5-2.2,4.3-5.1,6.4-7.7c0.7-0.8,0.1-1.7-0.3-2.4c-3.4-7.6-6.9-15.1-10.4-22.7
	c-2.8-6.1-5.6-12.3-8.4-18.4c-0.8-1.8,0.4-2.4,1.5-2.4c4.6-0.2,9.2-0.4,13.8,0.2c1.1,0.1,1.5,1,1.9,1.8c3.3,7.2,6.6,14.3,9.8,21.5
	c1.1,2.3,2.1,4.6,3.2,6.9c0.9,2,1.6,2.1,2.9,0.4c2.7-3.5,5.3-7,7.9-10.5c4.6-6.1,9.3-12.2,13.9-18.4c1.6-2.2,4-2,6.1-2.1
	c3.9-0.2,7.9,0,11.8,0c0.5,0,1,0.2,1.3,0.6c0.3,0.7-0.1,1.2-0.5,1.7c-3.9,4.9-7.7,9.7-11.6,14.6c-4.4,5.6-12.3,16.1-13.7,18.2
	c-2.9,3.7-5.6,7.4-8.6,11c-1,1.2-1.1,2.2-0.5,3.7c6.3,13.7,12.5,27.4,18.7,41.1c1.1,2.4,0.5,3.4-2.2,3.5c-4.1,0.1-8.2,0-12.3,0
	c-1.7,0-2.7-0.8-3.4-2.3c-4.3-9.5-8.6-19-12.9-28.5c-0.9-2-1.2-2.1-2.6-0.3c-7.1,9.3-14.3,18.5-21.3,27.9c-1.7,2.3-3.7,3.4-6.6,3.3
	c-3.9-0.2-7.8,0-11.7-0.1c-1,0-2.3,0.2-2.8-0.9c-0.5-1.1,0.4-1.9,1-2.6c7.4-9.5,14.9-18.9,22.4-28.4
	C94.5,120.1,96.9,117.2,99.2,114.3L99.2,114.3z"/>
<path class="st0" d="M32.8,155c-4.4,0.4-8.9,0.7-13.2-0.7c-10.8-3.4-18.5-12.1-19.5-24c-0.5-6,0.2-11.8,1.4-17.6
	c1.1-5.5,1.9-11.1,3-16.6c2-10.2,5.8-19.6,13.6-26.8c4.6-4.2,10-7,16.1-8.4c6.8-1.6,13.7-1.2,20.7-1c5.8,0.2,11.5,1,17.2,1.8
	c2.4,0.4,2.9,1,2.4,3.5c-0.4,2.1-0.8,4.2-1.2,6.2c-0.5,3.1-1.1,3.7-4.3,3.4c-8.1-0.6-16.2-1-24.3-0.9c-9,0.1-16.2,5-20,13.2
	c-2.9,6.4-3.8,13.2-5,20c-0.8,4.7-1.8,9.4-2.4,14.2c-0.6,5-0.3,10,2.5,14.5c2.1,3.4,5.5,5.1,9.4,5.3c4.2,0.2,8.3,0,12.5-0.1
	c1.6,0,2.3-0.8,2.6-2.4c0.5-3.8,1.2-7.6,1.9-11.4c1-6,2.2-11.9,3.2-17.9c0.4-2.5,1.3-3.4,3.9-3.5c3.7,0,7.4,0,11,0
	c2.1,0,2.7,0.6,2.3,2.7c-1.4,7.8-2.8,15.5-4.2,23.3c-1,5.4-1.8,10.8-2.7,16.2c-0.2,1.2-0.5,2.5-0.9,3.7c-0.3,1-1.2,1.4-2.2,1.7
	c-3.5,0.9-7.1,1.3-10.7,1.6C41.6,155.2,37.2,155,32.8,155L32.8,155z"/>
<path class="st0" d="M348.5,82.9c1.5,0,3-0.1,4.5,0c1.9,0.2,2.6-0.8,2.7-2.4c0.1-2.3,1-4.4,1.1-6.7c0.1-1.8,1-3.4,3.1-3.8
	c4.1-0.8,8.3-1.7,12.5-2c2.4-0.2,2.9,0.5,2.4,2.9c-0.6,3.2-1.2,6.4-1.9,9.5c-0.4,2,0,2.5,2.2,2.5c2.8,0,5.7,0,8.5,0
	c2.2,0,3,0.9,2.8,3c-0.3,2.3-0.7,4.6-1.2,6.9c-0.4,1.9-1.7,2.8-3.7,2.8c-3.1,0-6.2,0-9.3,0c-1.2,0-1.7,0.4-2,1.7
	c-1.5,8.1-3,16.2-4.3,24.3c-0.9,5.4-1.9,10.8-3,16.2c-0.6,3.1-0.4,5.3,3.9,5c2.2-0.1,4.5-0.1,6.8,0c2.3,0,2.9,0.7,2.6,3
	c-0.3,2.1-0.8,4.1-1.1,6.2c-0.3,2.2-1.7,3.2-3.7,3.4c-4.9,0.6-9.7,1.2-14.7,0.3c-7.9-1.5-11.2-5.9-11.4-13.3
	c-0.1-4,0.8-7.8,1.5-11.7c1.6-9.1,3.2-18.3,4.8-27.4c0.3-1.8,0.7-3.6,1-5.4c0.4-2.1-0.6-2.4-2.2-2.6c-3.2-0.3-6.3-0.8-9.4-1.5
	c-1.6-0.3-2.1-1.5-1.9-2.8c0.2-1.8,0.6-3.6,1.1-5.4c0.5-1.8,1.7-2.7,3.6-2.7C345.2,82.9,346.8,82.9,348.5,82.9L348.5,82.9
	L348.5,82.9z"/>
<path class="st0" d="M268.3,97.8c-2.8-8.7-9.4-13.9-17.8-15.2c-7-1.1-13.9-0.6-20.7,1.6c-6.8,2.2-12.1,6.3-15.8,12.3
	c-3.2,5.3-5.2,11-6.3,17.1c-1.2,6.7-2.8,13.3-2.2,20.1c0.4,5.4,2.1,10.4,5.8,14.5c4.9,5.4,11.4,7.8,18.5,8
	c9.3,0.3,18.6-0.5,27.8-2.4c1.2-0.2,2-0.8,2.3-1.9c0.9-3.2,1.6-6.4,1.8-9.7c0.1-1.5-0.6-2.1-2-2c-2.5,0.2-4.9,0.4-7.4,0.5
	c-7.2,0.4-14.5,1.5-21.8,0.2c-3.2-0.5-5.7-2.5-7.2-5.6c-1.3-2.6-0.7-5.4-0.8-8.1c-0.1-1.9,0.7-2.4,2.5-2.4c6.6,0.1,13.2,0,19.7,0
	c5.4,0,10.8,0,16.1,0c6.5,0,6.5,0,7.9-6.3C270.1,111.6,270.5,104.7,268.3,97.8L268.3,97.8z M252.2,112c-0.5,1-1.4,0.9-2.2,0.9
	c-3.8,0-7.6,0-11.4,0c-3.7,0-7.5,0-11.2,0c-1.7,0-2.2-0.5-1.8-2.3c1.6-6.7,5-11.8,12-13.4c3.9-0.9,7.9-0.6,11.4,1.6
	C252.1,100.7,254,108.8,252.2,112L252.2,112z"/>
<g>
	<path class="st1" d="M409.4,95.7h21.3c1.9,0,3.6,1.6,3.6,3.6v21.6c0,1.9-1.5,3.6-3.6,3.6h-21.3c-1.9,0-3.6-1.6-3.6-3.6V99.2
		C405.9,97.2,407.5,95.7,409.4,95.7L409.4,95.7z"/>
	<path class="st1" d="M405.7,5.9c7.8-7.9,20.5-7.9,28.3,0c5.1,5.3,6.9,12.7,5.3,19.4c-1.3,5.5-0.2,10.2,3.7,14s6.1,3.6,11.1,3.6
		h22.4c2.6,0,4.8,2.2,4.8,4.9v31c0,2.8-2.1,4.9-4.8,4.9h-28.9c-2.6,0-4.8-2.2-4.8-4.9V54.9c0-5,0.4-7.2-3.6-11.2
		c-3.8-3.9-8.8-5.1-14.2-3.8c-6.7,1.8-14,0-19.2-5.3C397.8,26.6,397.8,13.8,405.7,5.9L405.7,5.9L405.7,5.9z"/>
</g>
</svg>
